<?xml version="1.0" standalone="no"?><!DOCTYPE svg PUBLIC "-//W3C//DTD SVG 1.1//EN" "http://www.w3.org/Graphics/SVG/1.1/DTD/svg11.dtd"><svg t="1692286569140" class="icon" viewBox="0 0 1024 1024" version="1.1" xmlns="http://www.w3.org/2000/svg" p-id="10984" xmlns:xlink="http://www.w3.org/1999/xlink" width="200" height="200"><path d="M1024.1536 793.4976c-0.2048 21.5552-5.9392 42.7008-16.5888 61.3888l-323.4304-361.472 320-278.3232c13.0048 20.2752 19.968 43.8272 20.0192 67.8912v510.5152zM512.0512 559.104l444.8768-389.5808A125.7984 125.7984 0 0 0 895.488 153.6h-768c-21.6064 0-42.8544 5.4784-61.696 15.9232l446.2592 389.632z m122.88-23.9104l-102.912 90.5728a30.6688 30.6688 0 0 1-42.0352 0l-103.0144-90.5728-325.632 366.4384c20.224 12.8 43.6736 19.6608 67.584 19.6608h768.1536c23.9616 0 47.4112-6.8608 67.584-19.6608l-328.192-366.4384h-1.536zM20.0704 215.0912A127.488 127.488 0 0 0 0 281.8048v511.9488c0.2048 21.504 5.888 42.6496 16.5888 61.3376l323.2256-361.472L19.968 215.7056V215.04z" fill="#22BE8C" p-id="10985"></path></svg>