<?xml version="1.0" standalone="no"?><!DOCTYPE svg PUBLIC "-//W3C//DTD SVG 1.1//EN" "http://www.w3.org/Graphics/SVG/1.1/DTD/svg11.dtd"><svg t="1692240928399" class="icon" viewBox="0 0 1024 1024" version="1.1" xmlns="http://www.w3.org/2000/svg" p-id="12217" xmlns:xlink="http://www.w3.org/1999/xlink" width="200" height="200"><path d="M651.99999969 512.00000031c-34.00000031 0-60 25.99999969-60 60s25.99999969 60 60 60 60-25.99999969 60-60-25.99999969-60-60-60M372.00000031 512.00000031c-34.00000031 0-60 25.99999969-60 60s25.99999969 60 60 60 60-25.99999969 60-60-25.99999969-60-60-60" fill="#1296db" p-id="12218"></path><path d="M152 352c0-22.00000031 18-40.00000031 40.00000031-40.00000032h159.99999938l-57.99999938-145.99999968c-7.99999969-19.99999969 1.99999969-43.99999969 21.99999938-52.00000032 19.99999969-7.99999969 43.99999969 1.99999969 52.00000031 22.00000032l70.00000031 174h145.99999969l70.00000031-174c7.99999969-19.99999969 31.99999969-30 51.99999938-22.00000032 19.99999969 7.99999969 30 31.99999969 22.00000031 52.00000032L672.00000031 311.99999968h159.99999938c22.00000031 0 40.00000031 18 40.00000031 40.00000032v559.99999968c0 22.00000031-18 40.00000031-40.00000031 40.00000032H192.00000031c-22.00000031 0-40.00000031-18-40.00000031-40.00000032V352z m79.99999969 40.00000031v480h560.00000062V392.00000031H231.99999969zM992 731.99999968V532c0-22.00000031-18-40.00000031-40.00000031-40.00000032s-40.00000031 18-39.99999938 40.00000032v199.99999968c0 22.00000031 18 40.00000031 39.99999938 40.00000032s40.00000031-18 40.00000031-40.00000032M72.00000031 772c22.00000031 0 40.00000031-18 39.99999938-40.00000032V532c0-22.00000031-18-40.00000031-39.99999938-40.00000032s-40.00000031 18-40.00000031 40.00000032v199.99999968c0 22.00000031 18 40.00000031 40.00000031 40.00000032" fill="#1296db" p-id="12219"></path></svg>